<mxfile host="app.diagrams.net" modified="2023-02-17T14:23:53.444Z" agent="5.0 (Windows NT 10.0; Win64; x64) AppleWebKit/537.36 (KHTML, like Gecko) Chrome/110.0.0.0 Safari/537.36 " etag="6slH6A_GtNjsZGX2IL86" version="20.8.20" type="github">
  <diagram name="Page-1" id="91yqMedGj47Zj1SnSZed">
    <mxGraphModel dx="1050" dy="585" grid="1" gridSize="10" guides="1" tooltips="1" connect="1" arrows="1" fold="1" page="1" pageScale="1" pageWidth="850" pageHeight="1100" background="none" math="0" shadow="0">
      <root>
        <mxCell id="0" />
        <mxCell id="1" parent="0" />
        <mxCell id="zj1v_30QZDv3KxM_xpFZ-5" value="&lt;font style=&quot;font-size: 20px;&quot;&gt;J&lt;/font&gt;" style="ellipse;whiteSpace=wrap;html=1;aspect=fixed;fontFamily=Work Sans;fontStyle=1;fontSize=20;strokeWidth=2;shadow=0;" parent="1" vertex="1">
          <mxGeometry x="40" y="120" width="80" height="80" as="geometry" />
        </mxCell>
        <mxCell id="zj1v_30QZDv3KxM_xpFZ-6" value="Languages and their fallbacks" style="text;html=1;strokeColor=none;fillColor=none;align=center;verticalAlign=middle;whiteSpace=wrap;rounded=0;fontFamily=Work Sans;fontStyle=1;fontSize=22;fontSource=https%3A%2F%2Ffonts.googleapis.com%2Fcss%3Ffamily%3DWork%2BSans;" parent="1" vertex="1">
          <mxGeometry x="10" y="20" width="140" height="50" as="geometry" />
        </mxCell>
        <mxCell id="zj1v_30QZDv3KxM_xpFZ-7" value="Item A variants" style="text;html=1;strokeColor=none;fillColor=none;align=center;verticalAlign=middle;whiteSpace=wrap;rounded=0;fontFamily=Work Sans;fontStyle=1;fontSize=22;" parent="1" vertex="1">
          <mxGeometry x="220" y="10" width="110" height="70" as="geometry" />
        </mxCell>
        <mxCell id="zj1v_30QZDv3KxM_xpFZ-8" value="Item B variants" style="text;html=1;strokeColor=none;fillColor=none;align=center;verticalAlign=middle;whiteSpace=wrap;rounded=0;fontFamily=Work Sans;fontStyle=1;fontSize=22;" parent="1" vertex="1">
          <mxGeometry x="390" y="10" width="110" height="70" as="geometry" />
        </mxCell>
        <mxCell id="zj1v_30QZDv3KxM_xpFZ-19" value="" style="edgeStyle=orthogonalEdgeStyle;rounded=0;orthogonalLoop=1;jettySize=auto;html=1;fontFamily=Work Sans;fontSize=22;strokeWidth=2;shadow=0;" parent="1" source="zj1v_30QZDv3KxM_xpFZ-9" target="zj1v_30QZDv3KxM_xpFZ-5" edge="1">
          <mxGeometry relative="1" as="geometry" />
        </mxCell>
        <mxCell id="zj1v_30QZDv3KxM_xpFZ-9" value="K" style="ellipse;whiteSpace=wrap;html=1;aspect=fixed;fontFamily=Work Sans;fontStyle=1;fontSize=20;strokeWidth=2;shadow=0;" parent="1" vertex="1">
          <mxGeometry x="40" y="240" width="80" height="80" as="geometry" />
        </mxCell>
        <mxCell id="zj1v_30QZDv3KxM_xpFZ-18" value="" style="edgeStyle=orthogonalEdgeStyle;rounded=0;orthogonalLoop=1;jettySize=auto;html=1;fontFamily=Work Sans;fontSize=22;strokeWidth=2;shadow=0;" parent="1" source="zj1v_30QZDv3KxM_xpFZ-10" target="zj1v_30QZDv3KxM_xpFZ-9" edge="1">
          <mxGeometry relative="1" as="geometry" />
        </mxCell>
        <mxCell id="zj1v_30QZDv3KxM_xpFZ-10" value="&lt;font style=&quot;font-size: 22px;&quot;&gt;L&lt;/font&gt;" style="ellipse;whiteSpace=wrap;html=1;aspect=fixed;fontFamily=Work Sans;fontStyle=1;fontSize=22;strokeWidth=2;shadow=0;" parent="1" vertex="1">
          <mxGeometry x="40" y="360" width="80" height="80" as="geometry" />
        </mxCell>
        <mxCell id="zj1v_30QZDv3KxM_xpFZ-17" value="" style="edgeStyle=orthogonalEdgeStyle;rounded=0;orthogonalLoop=1;jettySize=auto;html=1;fontFamily=Work Sans;fontSize=22;strokeWidth=2;shadow=0;" parent="1" source="zj1v_30QZDv3KxM_xpFZ-11" target="zj1v_30QZDv3KxM_xpFZ-10" edge="1">
          <mxGeometry relative="1" as="geometry" />
        </mxCell>
        <mxCell id="zj1v_30QZDv3KxM_xpFZ-11" value="M" style="ellipse;whiteSpace=wrap;html=1;aspect=fixed;fontFamily=Work Sans;fontStyle=1;fontSize=20;strokeWidth=2;shadow=0;" parent="1" vertex="1">
          <mxGeometry x="40" y="480" width="80" height="80" as="geometry" />
        </mxCell>
        <mxCell id="zj1v_30QZDv3KxM_xpFZ-20" value="A (links B)" style="rounded=1;whiteSpace=wrap;html=1;shadow=0;strokeWidth=2;fontFamily=Work Sans;fontSize=22;fontStyle=1" parent="1" vertex="1">
          <mxGeometry x="195" y="360" width="160" height="80" as="geometry" />
        </mxCell>
        <mxCell id="zj1v_30QZDv3KxM_xpFZ-21" value="B" style="rounded=1;whiteSpace=wrap;html=1;shadow=0;strokeWidth=2;fontFamily=Work Sans;fontSize=22;fillColor=#3DCCA8;fontStyle=1" parent="1" vertex="1">
          <mxGeometry x="400" y="120" width="80" height="80" as="geometry" />
        </mxCell>
        <mxCell id="zj1v_30QZDv3KxM_xpFZ-23" value="B" style="rounded=1;whiteSpace=wrap;html=1;shadow=0;strokeWidth=2;fontFamily=Work Sans;fontSize=22;fillColor=#3DCCA8;fontStyle=1" parent="1" vertex="1">
          <mxGeometry x="400" y="480" width="80" height="80" as="geometry" />
        </mxCell>
      </root>
    </mxGraphModel>
  </diagram>
</mxfile>
